<svg xmlns="http://www.w3.org/2000/svg" width="32" height="32" viewBox="0 0 32 32">
  <rect width="32" height="32" rx="6" fill="#1f6f50"/>
  <path d="M8 20h16l1.5-5H6.5l1.5 5z" fill="none" stroke="white" stroke-width="1.5" stroke-linecap="round" stroke-linejoin="round"/>
  <path d="M8 20v2.5a1 1 0 0 0 1 1h2a1 1 0 0 0 1-1V20" fill="none" stroke="white" stroke-width="1.5" stroke-linecap="round" stroke-linejoin="round"/>
  <path d="M20 20v2.5a1 1 0 0 0 1 1h2a1 1 0 0 0 1-1V20" fill="none" stroke="white" stroke-width="1.5" stroke-linecap="round" stroke-linejoin="round"/>
  <path d="M4 13l2.5-5h19l2.5 5" fill="none" stroke="white" stroke-width="1.5" stroke-linecap="round" stroke-linejoin="round"/>
  <circle cx="10" cy="14" r="1" fill="white"/>
  <circle cx="22" cy="14" r="1" fill="white"/>
  <path d="M22 8H10L8 13h16l-2-5z" fill="none" stroke="white" stroke-width="1.5" stroke-linecap="round" stroke-linejoin="round"/>
  <path d="M16 2l-3 3h6l-3-3z" fill="white" opacity="0.6"/>
</svg>
